<svg xmlns="http://www.w3.org/2000/svg" viewBox="0 0 512 512" style="enable-background:new 0 0 512 512" xml:space="preserve"><path fill="transparent" d="M0-.5h64v64H0Z"/><filter id="a" x="-40%" y="-80%" width="140%" height="140%"><feTurbulence baseFrequency="23" numOctaves="2" result="turbulence"/><feDisplacementMap in2="turbulence" in="SourceGraphic" scale="555"/></filter><filter id="b"><feTurbulence baseFrequency=".99" numOctaves="2" result="turbulence"/><feDisplacementMap in2="turbulence" in="SourceGraphic" scale="3" xChannelSelector="R" yChannelSelector="G"><animate attributeName="scale" values="3;5;3" dur="0.1s" repeatCount="indefinite"/></feDisplacementMap></filter><path fill="#fff" d="M0 0h512v512H0z"/><circle id="c" fill="#000" cx="57" cy="666" r="656" style="filter:url(#a);transform:translateX(540px)"/><use href="#b" stroke="#9FDDFA"><animate attributeName="x" values=";5;2" dur="1s" repeatCount="indefinite"/><animate attributeName="y" values="2;5;2" dur="1s" repeatCount="indefinite"/></use><use href="#c"><animate attributeName="x" values="3;5;2" dur="1s" repeatCount="indefinite"/><animate attributeName="y" values="3;5;2" dur="1s" repeatCount="indefinite"/></use><use href="#c"/><animate attributeName="fill" values="#FAF4A5;#FFE941;#FAF4A5;#FFE941;#FAF4A5;#FFE941;#FAF4A5;#FFE941;#FAF4A5" dur="7s" repeatCount="indefinite"/><path style="filter:url(#b)" fill="black" d="M300.75 185.5q-.17-6.106-5.75-5-5.998 3.125-4.25 6.25 1.812 4.002 5.5 4.25 4.366-1.057 4.5-5.5m27.55-2.95q-1.742-1.914-4.05-3.55-3-1-4 4-11.36 9.875-10.5 12.25.56 5.974 8 9 4.675 1.438 5.2.8l-.2-.8q-.21-4.375-8.5-8.75 8.29 4.375 8.5 8.75l.2.8 2.55 9.7q4.998-3.126 6.85-8.95 3.989-14.478-4.05-23.25Z"/><path style="filter:url(#b)" stroke="#000" stroke-linejoin="round" stroke-linecap="round" fill="#fff" d="m297.45 331.15-23.35-2.35-87.3-5.5-84.55 11.05-29.825-2.95L94 308.05l61.55-15 7.5-55 10-34-15.5 28-9 56.5-48.05 9.5-19-53L97.05 135 74.5 246.05l19.5 53.5-35.05 30.525-67.8-6.725 2.95 67 91.55-24.5h18.25l83.45-11.05h56.9l55.8 7.7 38.7 35.35 9.4 41.45-23.75 30.95 29.25-27.05-9.4-50.85-29.8-32.05 60.2 18.8 57.5-19.9 82.1 36.15-.5-25.5-48.275-18.075L499 309h26v-11h-32l-39.15 49.425-21.7-8.125H380.1l-11.4-1.125m-68.2-4.425q1.831-4.524 5.25-2.5"/><path style="filter:url(#b)" stroke="black" stroke-linejoin="round" stroke-linecap="round" fill="#fff" d="m322.95 205.05 2.55 9.7q4.998-3.126 6.85-8.95 3.989-14.478-4.05-23.25-1.742-1.914-4.05-3.55-3-1-4 4-11.36 9.875-10.5 12.25.56 5.974 8 9 4.675 1.438 5.2.8l-.2-.8q-.21-4.375-8.5-8.75m18.1 10.3q21.217 19.888 30.15 36.45 9.484 15.937 14.5 44 1.405 11.781-1.625 24.45 1.048 6.65-.875 13.3.436 5.297-2.75 11.5l-2.5 1.875-2.45 1.85L356.75 344l-6.25 4-3 8.25-2.5 2.5v8.75l-3-9-5.5-7.25v-6.5h-13.75l-14.25-4.5-8.25 11.25-2.75 13.5-2.75-8q-1.683-6 .85-11.35 5.362-11.188 4.9-11.9l-19.125-16.4-3.625-3.1q-10.191-9.438-15.5-34.5-5.216-11.604.5-26.5v-17q-1.512-19.588 2.75-40 11.842-23.226 19.1-28.15 16.528-11.057 30.1-7.95 13.78 3.28 13.6 22.4m47.075 128.15q-6.31-12.1-7.125-24.2Q356.01 269.612 351 252l-3-11q-1.75-.513-3.5-4.75m-8 108.5q.215-3.874 2.75-5.25 5.767-3.159 8.75-.75.725-3.865 2.55-4.15 6.814-3.785 9.2-.85L363 338l6.25-.625M342 358.5l-2.5-6.5v-4l5.25-2.5q-.28-2.282 3.25-6.75m-6 19.75v-6.75l2.75-6.25M295 180.5q-5.998 3.125-4.25 6.25 1.812 4.002 5.5 4.25 4.366-1.057 4.5-5.5-.17-6.106-5.75-5Zm2.5 184.5q-.92-8.204 0-18.25.763-3.363 2.5-4v-3.5l5.75-8q4.247-3.462 9 0 1.509 2 0 4l-6.25 5M269.75 270q5.198 14.906 6.75 32l4.875 15.35"/></svg>